<svg width="15" height="15" viewBox="0 0 15 15" fill="none" xmlns="http://www.w3.org/2000/svg">
<path fill-rule="evenodd" clip-rule="evenodd" d="M3.14321 11.772C2.87548 12.0398 2.87553 12.4739 3.14329 12.7416C3.41106 13.0093 3.84515 13.0093 4.11287 12.7415L7.9421 8.91164L11.7716 12.7412C12.0394 13.0089 12.4735 13.0089 12.7412 12.7412C13.0089 12.4735 13.0089 12.0393 12.7412 11.7716L8.91161 7.94199L12.7409 4.11197C13.0086 3.8442 13.0086 3.41011 12.7408 3.14239C12.4731 2.87466 12.039 2.8747 11.7712 3.14247L7.94197 6.97242L4.11241 3.1428C3.84467 2.87506 3.41057 2.87506 3.14283 3.1428C2.87508 3.41055 2.87508 3.84464 3.14283 4.11239L6.97253 7.94206L3.14321 11.772Z" fill="#363333"/>
</svg>
