<svg width="75" height="75" viewBox="0 0 75 75" fill="none" xmlns="http://www.w3.org/2000/svg">
<circle cx="37.5" cy="37.5" r="37.5" fill="url(#paint0_linear_106_580)"/>
<path d="M47.6548 33.4851L35.0162 26.3547C34.6035 26.1188 34.1356 25.9964 33.6602 26.0001C33.1848 26.0037 32.7189 26.1332 32.3098 26.3753C31.9113 26.6033 31.5801 26.9327 31.3501 27.33C31.12 27.7274 30.9992 28.1785 31 28.6377V42.8986C30.9992 43.3577 31.12 43.8089 31.3501 44.2062C31.5801 44.6036 31.9113 44.9329 32.3098 45.1609C32.719 45.4029 33.1849 45.5323 33.6602 45.536C34.1356 45.5396 34.6034 45.4173 35.0162 45.1816L47.6548 38.0511C48.0624 37.8253 48.4021 37.4945 48.6387 37.093C48.8752 36.6916 49 36.2341 49 35.7681C49 35.3021 48.8752 34.8447 48.6387 34.4432C48.4021 34.0417 48.0624 33.7109 47.6548 33.4851Z" fill="white"/>
<defs>
<linearGradient id="paint0_linear_106_580" x1="50.875" y1="87.8289" x2="88.0618" y2="11.2213" gradientUnits="userSpaceOnUse">
<stop stop-color="#F95E0C"/>
<stop offset="1" stop-color="#FF8D24"/>
</linearGradient>
</defs>
</svg>
