<svg width="13" height="20" viewBox="0 0 13 20" fill="none" xmlns="http://www.w3.org/2000/svg">
<path d="M1.61381 0.455399C1.33868 0.449347 1.0685 0.529105 0.840828 0.683705C0.613158 0.838306 0.439313 1.06011 0.343465 1.31808C0.247616 1.57605 0.234526 1.85743 0.306013 2.12318C0.3775 2.38893 0.530013 2.6257 0.742348 2.80077L8.84413 9.74144L0.742348 16.6797C0.595465 16.7876 0.472454 16.9247 0.381019 17.0824C0.289584 17.2401 0.231694 17.415 0.210974 17.5961C0.190255 17.7772 0.207152 17.9606 0.260607 18.1349C0.314063 18.3092 0.402925 18.4706 0.52163 18.6089C0.640335 18.7472 0.786325 18.8595 0.950457 18.9388C1.11459 19.0181 1.29333 19.0626 1.47548 19.0696C1.65763 19.0767 1.83927 19.0461 2.00903 18.9797C2.17878 18.9133 2.33299 18.8125 2.46201 18.6837L11.7378 10.7474C11.8835 10.6231 12.0004 10.4688 12.0807 10.2949C12.1609 10.121 12.2024 9.93172 12.2024 9.74022C12.2024 9.54873 12.1609 9.35946 12.0807 9.18557C12.0004 9.01168 11.8835 8.85723 11.7378 8.73293L2.46201 0.788925C2.22768 0.580794 1.92714 0.462467 1.61381 0.455093V0.455399Z" fill="#D2D2D2"/>
</svg>
