<svg width="26" height="30" viewBox="0 0 26 30" fill="none" xmlns="http://www.w3.org/2000/svg">
<path d="M24.7228 20.2321C24.7457 20.0163 24.6522 19.8095 24.4682 19.6885L23.044 18.752L24.6139 16.3644C24.661 16.2928 24.6942 16.2035 24.7077 16.1183L25.3205 11.0496C25.3434 10.8338 25.2499 10.627 25.0659 10.506L24.1164 9.88169L25.0584 8.44914C25.2311 8.18651 25.1587 7.83115 24.8976 7.65947L23.7523 6.90638L24.1799 1.38241C24.2257 0.950835 23.7272 0.623066 23.3491 0.836133L18.447 3.41798L17.3016 2.6649C17.0405 2.49321 16.6856 2.56762 16.5129 2.83025L15.571 4.2628L14.6215 3.63847C14.4434 3.52141 14.2106 3.51363 14.0215 3.62016L9.61068 6.19164C9.5319 6.23389 9.47294 6.29771 9.42191 6.37531L7.85202 8.76288L6.42777 7.8264C6.24974 7.70934 6.01686 7.70155 5.82781 7.80809C5.73726 7.86824 3.48465 9.1999 1.54975 12.1426C0.262436 14.1004 -0.0739138 16.0081 0.515427 17.9687C1.24268 20.4047 3.46591 22.8925 7.12769 25.3772L6.18183 26.8157C6.00914 27.0783 6.08148 27.4337 6.3426 27.6054C6.60371 27.7771 6.95864 27.7027 7.13132 27.44L8.07719 26.0015C11.8096 28.3787 14.9787 29.428 17.4996 29.1362C19.5332 28.9003 21.1514 27.8355 22.4387 25.8776C24.3736 22.935 24.7035 20.3391 24.7228 20.2321ZM17.3731 28.01C15.1185 28.2717 12.2022 27.2775 8.70122 25.0525L9.43907 23.9303L18.3988 25.2219C18.7108 25.2646 18.9961 25.0504 19.0404 24.7375C19.0846 24.4246 18.8724 24.1397 18.5644 24.0911L10.1377 22.8678L11.9823 20.0624L19.0886 20.1525C19.4024 20.1536 19.66 19.904 19.6687 19.5934C19.6715 19.2789 19.4239 19.0221 19.1141 19.015L12.728 18.9283L14.8513 15.6991L20.1456 14.5892C20.4513 14.5251 20.6514 14.2207 20.5891 13.9147C20.5268 13.6087 20.2242 13.4097 19.9185 13.4738L15.7383 14.3501L20.3185 7.3844C20.4911 7.12177 20.4188 6.76641 20.1577 6.59473C19.8966 6.42304 19.5416 6.49745 19.369 6.76008L14.7888 13.7258L13.9387 9.55042C13.8764 9.24442 13.5738 9.04542 13.2681 9.10949C12.9625 9.17357 12.7623 9.47798 12.8246 9.78398L13.9038 15.0847L11.7805 18.3139L9.17993 12.483C9.05456 12.1954 8.71467 12.066 8.42904 12.203C8.1414 12.3302 8.01044 12.6716 8.14567 12.9572L11.0447 19.4459L9.20005 22.2513L4.74518 14.9875C4.58237 14.718 4.2308 14.6322 3.96699 14.8007C3.69725 14.9653 3.60975 15.3181 3.77648 15.5817L8.4935 23.3L7.75565 24.4222C4.32531 22.0897 2.25675 19.8062 1.60348 17.6325C1.11998 16.0151 1.40817 14.4263 2.49925 12.7669C3.88861 10.6539 5.47463 9.43111 6.1084 8.98433L7.69881 10.0301C7.95992 10.2018 8.31485 10.1273 8.48754 9.86472L10.2968 7.11304L14.2843 4.7847L15.4178 5.52999C15.6789 5.70167 16.0338 5.62727 16.2065 5.36463L17.1484 3.93209L18.0979 4.55641C18.27 4.66957 18.493 4.67942 18.6742 4.58482L22.9639 2.32694L22.5909 7.16015C22.5759 7.364 22.6733 7.56486 22.8454 7.67801L23.7949 8.30233L22.853 9.73488C22.6803 9.99751 22.7526 10.3529 23.0137 10.5246L24.1472 11.2698L23.5898 15.8535L21.7805 18.6052C21.6078 18.8678 21.6802 19.2232 21.9413 19.3949L23.5317 20.4406C23.3786 21.2035 22.8786 23.1403 21.4892 25.2533C20.3981 26.9127 19.0536 27.8069 17.3731 28.01Z" fill="#6AA426"/>
</svg>
