<svg width="18" height="22" viewBox="0 0 18 22" fill="none" xmlns="http://www.w3.org/2000/svg">
<path d="M9 0C4.35615 0 0.578125 3.77803 0.578125 8.42188C0.578125 9.90834 0.970859 11.3697 1.71383 12.6481C1.88704 12.9461 2.08066 13.2365 2.2894 13.5113L8.63408 22H9.36588L15.7106 13.5114C15.9193 13.2365 16.1129 12.9461 16.2862 12.6481C17.0291 11.3697 17.4219 9.90834 17.4219 8.42188C17.4219 3.77803 13.6438 0 9 0ZM9 11.2148C7.45996 11.2148 6.20703 9.96192 6.20703 8.42188C6.20703 6.88183 7.45996 5.62891 9 5.62891C10.54 5.62891 11.793 6.88183 11.793 8.42188C11.793 9.96192 10.54 11.2148 9 11.2148Z" fill="#F9620E"/>
</svg>
