<svg width="20" height="14" viewBox="0 0 20 14" fill="none" xmlns="http://www.w3.org/2000/svg">
<path d="M13.2573 7.10438L19.9998 11.4444V2.58112L13.2573 7.10438Z" fill="#F9620E"/>
<path d="M0 2.58112V11.4444L6.74249 7.10438L0 2.58112Z" fill="#F9620E"/>
<path d="M18.7501 0H1.2501C0.626347 0 0.131348 0.473454 0.0375977 1.08309L10.0001 7.76617L19.9626 1.08309C19.8688 0.473454 19.3738 0 18.7501 0Z" fill="#F9620E"/>
<path d="M12.1125 7.8731L10.3438 9.05928C10.2388 9.12928 10.12 9.16364 10 9.16364C9.88002 9.16364 9.76127 9.12928 9.65627 9.05928L7.88753 7.87183L0.0400391 12.9258C0.136289 13.5304 0.628788 14 1.25004 14H18.75C19.3713 14 19.8638 13.5304 19.96 12.9258L12.1125 7.8731Z" fill="#F9620E"/>
</svg>
