<svg width="40" height="40" viewBox="0 0 40 40" fill="none" xmlns="http://www.w3.org/2000/svg">
<path d="M34.6338 32.8662L27.1725 25.405C28.9375 23.25 30 20.4975 30 17.5C30 10.6075 24.3925 5 17.5 5C10.6075 5 5 10.6075 5 17.5C5 24.3925 10.6075 30 17.5 30C20.4975 30 23.25 28.9375 25.405 27.1725L32.8662 34.6338C33.355 35.1225 34.145 35.1225 34.6338 34.6338C35.1225 34.145 35.1225 33.355 34.6338 32.8662ZM7.5 17.5C7.5 11.9863 11.9863 7.5 17.5 7.5C23.0138 7.5 27.5 11.9863 27.5 17.5C27.5 23.0138 23.0138 27.5 17.5 27.5C11.9863 27.5 7.5 23.0138 7.5 17.5Z" fill="white"/>
<path d="M23.75 17.5C23.75 18.19 23.19 18.75 22.5 18.75H18.75V22.5C18.75 23.19 18.19 23.75 17.5 23.75C16.81 23.75 16.25 23.19 16.25 22.5V18.75H12.5C11.81 18.75 11.25 18.19 11.25 17.5C11.25 16.81 11.81 16.25 12.5 16.25H16.25V12.5C16.25 11.81 16.81 11.25 17.5 11.25C18.19 11.25 18.75 11.81 18.75 12.5V16.25H22.5C23.19 16.25 23.75 16.81 23.75 17.5Z" fill="white"/>
</svg>
