<svg width="25" height="25" viewBox="0 0 25 25" fill="none" xmlns="http://www.w3.org/2000/svg">
<g clip-path="url(#clip0_68_178)">
<path d="M12.5025 0C5.59888 0 0 5.59776 0 12.5V25L3.65927 21.3415C4.81864 22.5035 6.19632 23.4249 7.71311 24.0528C9.22989 24.6807 10.8559 25.0026 12.4975 25C19.4011 25 25 19.4022 25 12.5C25 5.59776 19.4061 0 12.5025 0Z" fill="#F83B6A"/>
<path d="M20.106 13.0141C20.106 14.2936 19.7711 15.5081 19.1112 16.6526C18.4514 17.7972 17.5915 18.6768 16.5318 19.2766C15.482 19.8764 14.2422 20.1812 12.8225 20.1812C11.3078 20.1812 9.95473 19.8514 8.76331 19.1916C7.57354 18.5319 6.62873 17.5923 5.93887 16.3728C5.2502 15.1729 4.88985 13.8127 4.89408 12.4293C4.89408 10.4901 5.53395 8.81079 6.81869 7.37136C8.33339 5.67204 10.3097 4.82071 12.7475 4.81738C14.0173 4.81738 15.212 5.05229 16.3168 5.5221C17.2566 5.92194 18.1714 6.60167 19.0662 7.57128L17.1066 9.5155C15.8669 8.20603 14.4205 7.54962 12.7675 7.54629C11.3278 7.54629 10.118 8.0261 9.14823 8.97572C8.17842 9.93534 7.68852 11.0949 7.68852 12.4593C7.68852 13.8688 8.19842 15.0683 9.20322 16.0479C10.208 17.0275 11.4528 17.5173 12.9375 17.5173C13.8973 17.5173 14.7121 17.3174 15.367 16.9125C16.0319 16.5077 16.5617 15.873 16.9667 15.0133H12.7275V12.3944H20.091L20.106 13.0141Z" fill="white"/>
</g>
<defs>
<clipPath id="clip0_68_178">
<rect width="25" height="25" fill="white"/>
</clipPath>
</defs>
</svg>
