<svg width="80" height="80" viewBox="0 0 80 80" fill="none" xmlns="http://www.w3.org/2000/svg">
<path d="M38.75 70H41.25V72.5H38.75V70Z" fill="#F9620E"/>
<path d="M60.3171 62.0975L62.0849 60.3298L63.8527 62.0975L62.0849 63.8653L60.3171 62.0975Z" fill="#F9620E"/>
<path d="M70 38.75H72.5V41.25H70V38.75Z" fill="#F9620E"/>
<path d="M76.2499 31.25H67.3874C66.9038 29.7249 66.2912 28.2437 65.5562 26.8225L71.8199 20.5575C72.0543 20.3231 72.1859 20.0052 72.1859 19.6738C72.1859 19.3423 72.0543 19.0244 71.8199 18.79L66.5162 13.4875C63.0463 9.95099 58.9101 7.1371 54.3464 5.20844C49.7827 3.27978 44.8821 2.27458 39.9276 2.25092C34.9732 2.22725 30.0632 3.1856 25.4813 5.07058C20.8994 6.95557 16.7364 9.72982 13.233 13.233C9.72949 16.7363 6.95495 20.899 5.06964 25.4808C3.18433 30.0626 2.22564 34.9725 2.24895 39.9269C2.27226 44.8814 3.27712 49.7821 5.20546 54.3459C7.1338 58.9097 9.94739 63.0462 13.4837 66.5163L18.7862 71.82C19.0206 72.0544 19.3385 72.186 19.6699 72.186C20.0014 72.186 20.3193 72.0544 20.5537 71.82L26.8187 65.5563C28.2411 66.291 29.7236 66.9032 31.2499 67.3863V76.25C31.2499 76.5815 31.3816 76.8995 31.616 77.1339C31.8505 77.3683 32.1684 77.5 32.4999 77.5H47.4999C47.8314 77.5 48.1494 77.3683 48.3838 77.1339C48.6182 76.8995 48.7499 76.5815 48.7499 76.25V67.3875C50.275 66.9042 51.7562 66.292 53.1774 65.5575L59.4424 71.8213C59.6768 72.0556 59.9947 72.1873 60.3262 72.1873C60.6576 72.1873 60.9755 72.0556 61.2099 71.8213L71.8162 61.215C72.0505 60.9806 72.1822 60.6627 72.1822 60.3313C72.1822 59.9998 72.0505 59.6819 71.8162 59.4475L65.5524 53.1825C66.2885 51.7598 66.9019 50.2769 67.3862 48.75H76.2499C76.5815 48.75 76.8994 48.6183 77.1338 48.3839C77.3682 48.1495 77.4999 47.8315 77.4999 47.5V32.5C77.4999 32.1685 77.3682 31.8506 77.1338 31.6161C76.8994 31.3817 76.5815 31.25 76.2499 31.25ZM15.2499 15.25C21.6595 8.83846 30.3075 5.16526 39.372 5.00437C48.4364 4.84348 57.2094 8.20746 63.8424 14.3875L62.0774 16.1525C55.9088 10.4598 47.7769 7.37447 39.3846 7.54274C30.9923 7.71101 22.9906 11.1198 17.0551 17.0552C11.1197 22.9907 7.71092 30.9924 7.54265 39.3847C7.37438 47.777 10.4597 55.9089 16.1524 62.0775L14.3874 63.8425C8.20737 57.2095 4.84338 48.4365 5.00427 39.3721C5.16516 30.3076 8.83837 21.6595 15.2499 15.25ZM50.6062 29.3938C53.3814 32.2145 54.9295 36.0177 54.9134 39.9747C54.8973 43.9318 53.3182 47.7222 50.5202 50.5202C47.7221 53.3183 43.9317 54.8974 39.9746 54.9135C36.0176 54.9296 32.2145 53.3815 29.3937 50.6063C29.1593 50.3719 28.8414 50.2403 28.5099 50.2403C28.1785 50.2403 27.8606 50.3719 27.6262 50.6063L17.9212 60.3113C12.6786 54.6153 9.84088 47.1132 10.0012 39.3735C10.1616 31.6338 13.3076 24.2557 18.7816 18.7817C24.2556 13.3077 31.6337 10.1617 39.3734 10.0013C47.1131 9.84098 54.6152 12.6787 60.3112 17.9213L50.6062 27.625C50.49 27.7411 50.3978 27.879 50.3349 28.0307C50.2719 28.1825 50.2396 28.3451 50.2396 28.5094C50.2396 28.6737 50.2719 28.8363 50.3349 28.9881C50.3978 29.1398 50.49 29.2777 50.6062 29.3938ZM74.9999 46.25H66.4549C66.1817 46.2499 65.9159 46.3392 65.6983 46.5045C65.4806 46.6698 65.3232 46.9018 65.2499 47.165C64.7009 49.1258 63.9199 51.0142 62.9237 52.79C62.7894 53.0283 62.737 53.3041 62.7744 53.575C62.8119 53.846 62.9372 54.0971 63.1312 54.29L69.1674 60.3275L60.3299 69.165L54.2924 63.1288C54.0995 62.9348 53.8484 62.8095 53.5774 62.772C53.3065 62.7346 53.0307 62.787 52.7924 62.9213C51.0166 63.9175 49.1282 64.6985 47.1674 65.2475C46.9042 65.3208 46.6722 65.4782 46.5069 65.6959C46.3417 65.9135 46.2523 66.1793 46.2524 66.4525V75H33.7499V66.455C33.7501 66.1818 33.6607 65.916 33.4954 65.6984C33.3302 65.4807 33.0982 65.3233 32.8349 65.25C30.8741 64.701 28.9858 63.92 27.2099 62.9238C26.9716 62.7895 26.6959 62.7371 26.4249 62.7745C26.154 62.812 25.9028 62.9373 25.7099 63.1313L19.6724 69.1675L16.1374 65.6325L28.5437 53.2275C31.8884 56.1232 36.2057 57.6446 40.6268 57.4856C45.048 57.3266 49.2449 55.4991 52.373 52.3707C55.5011 49.2423 57.3282 45.0452 57.4867 40.624C57.6453 36.2028 56.1234 31.8857 53.2274 28.5413L65.6324 16.135L69.1674 19.67L63.1312 25.7075C62.9372 25.9004 62.8119 26.1516 62.7744 26.4225C62.737 26.6935 62.7894 26.9692 62.9237 27.2075C63.9201 28.9833 64.7011 30.8717 65.2499 32.8325C65.3232 33.0958 65.4806 33.3278 65.6983 33.493C65.9159 33.6583 66.1817 33.7477 66.4549 33.7475H74.9999V46.25Z" fill="#F9620E"/>
<path d="M41.25 35.1775V21.25C41.25 20.9185 41.1183 20.6005 40.8839 20.3661C40.6495 20.1317 40.3315 20 40 20C39.6685 20 39.3505 20.1317 39.1161 20.3661C38.8817 20.6005 38.75 20.9185 38.75 21.25V35.1775C37.8909 35.4021 37.1072 35.8515 36.4793 36.4793C35.8515 37.1072 35.4021 37.8909 35.1775 38.75H26.25C25.9185 38.75 25.6005 38.8817 25.3661 39.1161C25.1317 39.3505 25 39.6685 25 40C25 40.3315 25.1317 40.6495 25.3661 40.8839C25.6005 41.1183 25.9185 41.25 26.25 41.25H35.1775C35.3961 42.103 35.8365 42.883 36.454 43.5107C37.0715 44.1384 37.8442 44.5916 38.6935 44.8241C39.5427 45.0567 40.4385 45.0604 41.2896 44.8348C42.1408 44.6092 42.9171 44.1624 43.5398 43.5398C44.1624 42.9171 44.6092 42.1408 44.8348 41.2896C45.0604 40.4385 45.0567 39.5427 44.8241 38.6935C44.5916 37.8442 44.1384 37.0715 43.5107 36.454C42.883 35.8365 42.103 35.3961 41.25 35.1775ZM40 42.5C39.5055 42.5 39.0222 42.3534 38.6111 42.0787C38.2 41.804 37.8795 41.4135 37.6903 40.9567C37.5011 40.4999 37.4516 39.9972 37.548 39.5123C37.6445 39.0273 37.8826 38.5819 38.2322 38.2322C38.5819 37.8826 39.0273 37.6445 39.5123 37.548C39.9972 37.4516 40.4999 37.5011 40.9567 37.6903C41.4135 37.8795 41.804 38.2 42.0787 38.6111C42.3534 39.0222 42.5 39.5055 42.5 40C42.5 40.663 42.2366 41.2989 41.7678 41.7678C41.2989 42.2366 40.663 42.5 40 42.5Z" fill="#F9620E"/>
<path d="M40 16.25C39.6685 16.25 39.3505 16.1183 39.1161 15.8839C38.8817 15.6495 38.75 15.3315 38.75 15V12.5C38.75 12.1685 38.8817 11.8505 39.1161 11.6161C39.3505 11.3817 39.6685 11.25 40 11.25C40.3315 11.25 40.6495 11.3817 40.8839 11.6161C41.1183 11.8505 41.25 12.1685 41.25 12.5V15C41.25 15.3315 41.1183 15.6495 40.8839 15.8839C40.6495 16.1183 40.3315 16.25 40 16.25Z" fill="#F9620E"/>
<path d="M52.4999 19.6C52.2806 19.5998 52.0652 19.5418 51.8754 19.432C51.6855 19.3222 51.5279 19.1644 51.4184 18.9744C51.3088 18.7844 51.2512 18.569 51.2512 18.3497C51.2513 18.1304 51.309 17.9149 51.4187 17.725L52.6687 15.5587C52.8356 15.274 53.1084 15.0668 53.4275 14.9824C53.7467 14.8981 54.0862 14.9434 54.372 15.1084C54.6579 15.2734 54.8669 15.5449 54.9534 15.8634C55.0398 16.182 54.9968 16.5218 54.8337 16.8087L53.5837 18.975C53.4739 19.1652 53.3159 19.3231 53.1256 19.4328C52.9354 19.5425 52.7196 19.6002 52.4999 19.6Z" fill="#F9620E"/>
<path d="M27.5 19.6C27.2804 19.6002 27.0646 19.5425 26.8743 19.4328C26.6841 19.3231 26.5261 19.1652 26.4163 18.975L25.1663 16.8087C25.0031 16.5218 24.9601 16.182 25.0466 15.8634C25.1331 15.5449 25.3421 15.2734 25.6279 15.1084C25.9138 14.9434 26.2533 14.8981 26.5724 14.9824C26.8916 15.0668 27.1644 15.274 27.3313 15.5587L28.5813 17.725C28.6909 17.9149 28.7487 18.1304 28.7488 18.3497C28.7488 18.569 28.6912 18.7844 28.5816 18.9744C28.4721 19.1644 28.3144 19.3222 28.1246 19.432C27.9347 19.5418 27.7194 19.5998 27.5 19.6Z" fill="#F9620E"/>
<path d="M18.3488 28.75C18.1293 28.7505 17.9136 28.6927 17.7238 28.5825L15.5575 27.3325C15.2728 27.1656 15.0656 26.8928 14.9812 26.5737C14.8969 26.2545 14.9421 25.915 15.1072 25.6291C15.2722 25.3433 15.5436 25.1343 15.8622 25.0478C16.1807 24.9613 16.5206 25.0044 16.8075 25.1675L18.9738 26.4175C19.2121 26.5551 19.3983 26.7675 19.5036 27.0217C19.6089 27.2759 19.6273 27.5578 19.5561 27.8235C19.4849 28.0893 19.328 28.3242 19.1097 28.4917C18.8914 28.6592 18.6239 28.75 18.3488 28.75Z" fill="#F9620E"/>
<path d="M15 41.25H12.5C12.1685 41.25 11.8505 41.1183 11.6161 40.8839C11.3817 40.6495 11.25 40.3315 11.25 40C11.25 39.6685 11.3817 39.3505 11.6161 39.1161C11.8505 38.8817 12.1685 38.75 12.5 38.75H15C15.3315 38.75 15.6495 38.8817 15.8839 39.1161C16.1183 39.3505 16.25 39.6685 16.25 40C16.25 40.3315 16.1183 40.6495 15.8839 40.8839C15.6495 41.1183 15.3315 41.25 15 41.25Z" fill="#F9620E"/>
<path d="M16.185 55C15.9098 55 15.6424 54.9092 15.4241 54.7417C15.2058 54.5742 15.0489 54.3393 14.9777 54.0735C14.9064 53.8077 14.9249 53.5259 15.0302 53.2717C15.1355 53.0175 15.3217 52.8051 15.56 52.6675L17.7263 51.4175C17.8685 51.3341 18.0258 51.2797 18.1891 51.2574C18.3524 51.235 18.5186 51.2452 18.6779 51.2874C18.8373 51.3295 18.9868 51.4028 19.1177 51.5029C19.2487 51.603 19.3585 51.7281 19.441 51.8708C19.5234 52.0136 19.5768 52.1713 19.598 52.3347C19.6193 52.4982 19.608 52.6643 19.5648 52.8234C19.5216 52.9825 19.4473 53.1314 19.3463 53.2617C19.2453 53.392 19.1196 53.501 18.9763 53.5825L16.81 54.8325C16.6202 54.9427 16.4045 55.0005 16.185 55Z" fill="#F9620E"/>
<path d="M40 52.5C38.3578 52.5045 36.731 52.1826 35.2143 51.553C33.6976 50.9234 32.3211 49.9987 31.165 48.8325C31.0457 48.717 30.9507 48.5789 30.8854 48.4263C30.8201 48.2737 30.7859 48.1096 30.7847 47.9437C30.7835 47.7777 30.8154 47.6132 30.8784 47.4596C30.9415 47.3061 31.0345 47.1667 31.152 47.0495C31.2696 46.9323 31.4093 46.8397 31.563 46.777C31.7167 46.7144 31.8813 46.683 32.0473 46.6847C32.2132 46.6864 32.3772 46.7211 32.5296 46.7868C32.682 46.8525 32.8198 46.9479 32.935 47.0675C33.8593 48.0116 34.9617 48.7632 36.1784 49.2785C37.3951 49.7939 38.7019 50.0628 40.0232 50.0698C41.3445 50.0769 42.6541 49.8218 43.8762 49.3194C45.0982 48.817 46.2086 48.0772 47.1429 47.1429C48.0772 46.2086 48.817 45.0982 49.3194 43.8762C49.8218 42.6541 50.0769 41.3445 50.0698 40.0232C50.0628 38.7019 49.7939 37.3951 49.2785 36.1784C48.7632 34.9617 48.0116 33.8593 47.0675 32.935C46.9479 32.8198 46.8525 32.682 46.7868 32.5296C46.7211 32.3772 46.6864 32.2132 46.6847 32.0473C46.683 31.8813 46.7144 31.7167 46.777 31.563C46.8397 31.4093 46.9323 31.2696 47.0495 31.152C47.1667 31.0345 47.3061 30.9415 47.4596 30.8784C47.6132 30.8154 47.7777 30.7835 47.9437 30.7847C48.1096 30.7859 48.2737 30.8201 48.4263 30.8854C48.5789 30.9507 48.717 31.0457 48.8325 31.165C50.5789 32.9129 51.7681 35.1393 52.2499 37.5628C52.7317 39.9863 52.4843 42.4983 51.5392 44.7813C50.594 47.0643 48.9934 49.016 46.9396 50.3898C44.8858 51.7637 42.4709 52.4979 40 52.5Z" fill="#F9620E"/>
</svg>
