<svg width="74" height="74" viewBox="0 0 74 74" fill="none" xmlns="http://www.w3.org/2000/svg">
<path d="M68.1124 5.88751C62.4374 0.225013 54.3624 -0.862487 49.9624 3.46251L39.3124 14.125V8.67501C39.3124 5.86251 36.4249 3.57501 32.8749 3.57501C29.3249 3.57501 26.4374 5.86251 26.4374 8.67501V10.675C25.3491 9.78959 24.0715 9.16666 22.7037 8.85451C21.3359 8.54237 19.9146 8.54938 18.5499 8.87501C18.3253 8.92872 18.12 9.04358 17.9567 9.20685C17.7935 9.37013 17.6786 9.57544 17.6249 9.80001C17.3099 11.1357 17.2993 12.5251 17.594 13.8654C17.8887 15.2058 18.4812 16.4626 19.3274 17.5429C20.1737 18.6233 21.2521 19.4994 22.4829 20.1065C23.7136 20.7136 25.0651 21.036 26.4374 21.05V27L3.4624 49.9625C2.38329 51.1193 1.59402 52.5156 1.15942 54.0367C0.724821 55.5578 0.6573 57.1603 0.962404 58.7125C1.58797 62.2903 3.33973 65.5749 5.9624 68.0875C8.47507 70.7102 11.7596 72.462 15.3374 73.0875C15.967 73.1755 16.6017 73.2214 17.2374 73.225C18.5003 73.2617 19.7576 73.0437 20.9345 72.5842C22.1113 72.1246 23.1836 71.4328 24.0874 70.55L33.1124 61.5H53.4124C56.1999 61.5 58.4124 58.6 58.4124 55.075C58.4124 51.55 56.1249 48.6375 53.3124 48.6375H45.9499L70.5374 24.0375C74.8624 19.7 73.7749 11.5625 68.1124 5.88751ZM21.8624 16.65C21.1483 15.9403 20.605 15.0774 20.2737 14.1267C19.9424 13.176 19.8316 12.1623 19.9499 11.1625C20.9489 11.045 21.9615 11.1573 22.9103 11.4909C23.8592 11.8246 24.7193 12.3707 25.4249 13.0875C25.8265 13.5089 26.1673 13.9843 26.4374 14.5V18.625C24.699 18.6036 23.0401 17.8933 21.8249 16.65H21.8624ZM15.6499 70.5875C12.6028 70.0574 9.80452 68.5685 7.66241 66.3375C5.43147 64.1954 3.94254 61.3971 3.4124 58.35C3.16874 57.1821 3.20721 55.9729 3.52461 54.8229C3.84202 53.6728 4.4292 52.6151 5.2374 51.7375C5.91932 51.0884 6.72374 50.5816 7.60368 50.2468C8.48362 49.912 9.42145 49.7559 10.3624 49.7875C13.9678 49.965 17.3641 51.5332 19.8374 54.1625C24.5374 58.85 25.6249 65.4125 22.2624 68.7625C21.3848 69.5707 20.3271 70.1579 19.177 70.4753C18.027 70.7927 16.8178 70.8312 15.6499 70.5875ZM55.9624 55.05C55.9624 57.1875 54.7124 58.9875 53.3624 58.9875C51.9999 58.975 50.7499 57.175 50.7499 55.05C50.7499 52.925 51.9999 51.1125 53.3499 51.1125C54.7749 51.1125 55.9624 52.9125 55.9624 55.05ZM42.4124 48.6125H38.6624C38.3309 48.6125 38.0129 48.7442 37.7785 48.9786C37.5441 49.2131 37.4124 49.531 37.4124 49.8625C37.4124 50.194 37.5441 50.512 37.7785 50.7464C38.0129 50.9808 38.3309 51.1125 38.6624 51.1125H49.3999C48.6806 52.3 48.3004 53.6617 48.3004 55.05C48.3004 56.4383 48.6806 57.8001 49.3999 58.9875H32.5499C32.3854 58.9866 32.2223 59.0181 32.07 59.0803C31.9177 59.1425 31.7792 59.2342 31.6624 59.35L26.6624 64.35C26.7047 62.1164 26.282 59.8984 25.4213 57.8369C24.5605 55.7754 23.2805 53.9154 21.6624 52.375C20.1221 50.757 18.2621 49.4769 16.2005 48.6161C14.139 47.7554 11.921 47.3327 9.6874 47.375L28.5749 28.4125C28.6908 28.2957 28.7824 28.1572 28.8446 28.0049C28.9068 27.8526 28.9384 27.6895 28.9374 27.525V8.67501C28.9374 7.26251 30.7374 6.07501 32.8749 6.07501C35.0124 6.07501 36.8124 7.32501 36.8124 8.67501V16.625L34.1374 19.3C33.902 19.5337 33.7691 19.8514 33.768 20.1831C33.7668 20.5148 33.8974 20.8334 34.1312 21.0688C34.3649 21.3041 34.6825 21.437 35.0142 21.4382C35.3459 21.4394 35.6645 21.3087 35.8999 21.075L38.9249 18.05L51.7374 5.23751C55.0874 1.87501 61.6499 2.96251 66.3374 7.66251C71.0249 12.3625 72.1249 18.9125 68.7624 22.2625L42.4124 48.6125ZM18.1499 55.85C21.7874 59.4875 22.9124 64.725 20.5749 67.1C20.1157 67.5254 19.5763 67.855 18.9882 68.0697C18.4001 68.2843 17.7752 68.3796 17.1499 68.35C14.1777 68.1697 11.387 66.8593 9.34991 64.6875C7.47449 62.8939 6.2144 60.5531 5.7499 58C5.70183 57.6685 5.78743 57.3315 5.98786 57.063C6.18829 56.7946 6.48713 56.6168 6.81866 56.5688C7.15018 56.5207 7.48721 56.6063 7.75563 56.8067C8.02404 57.0072 8.20183 57.306 8.24991 57.6375C8.63856 59.6413 9.63859 61.4754 11.1124 62.8875C12.6828 64.5907 14.84 65.6358 17.1499 65.8125C17.7476 65.8462 18.3375 65.6644 18.8124 65.3C19.8624 64.25 19.3124 60.55 16.3874 57.6125C15.0946 56.2744 13.4608 55.3148 11.6624 54.8375C11.3464 54.7575 11.0741 54.5572 10.9036 54.2794C10.7332 54.0015 10.678 53.668 10.7499 53.35C10.7854 53.1888 10.8524 53.0362 10.9471 52.901C11.0419 52.7658 11.1625 52.6507 11.3019 52.5624C11.4414 52.4741 11.597 52.4143 11.7597 52.3864C11.9224 52.3585 12.089 52.3632 12.2499 52.4C14.4974 52.9833 16.5395 54.1774 18.1499 55.85ZM46.2499 32.4875C46.4827 32.7217 46.6134 33.0385 46.6134 33.3688C46.6134 33.699 46.4827 34.0158 46.2499 34.25L36.0624 44.5C35.827 44.7337 35.5084 44.8644 35.1767 44.8632C34.845 44.862 34.5274 44.7291 34.2937 44.4938C34.0599 44.2584 33.9293 43.9398 33.9305 43.6081C33.9316 43.2764 34.0645 42.9587 34.2999 42.725L44.4999 32.4875C44.7336 32.2585 45.0477 32.1302 45.3749 32.1302C45.7021 32.1302 46.0163 32.2585 46.2499 32.4875ZM56.5249 10.75L49.4999 17.7625C49.3837 17.8797 49.2455 17.9727 49.0931 18.0361C48.9408 18.0996 48.7774 18.1323 48.6124 18.1323C48.4474 18.1323 48.284 18.0996 48.1317 18.0361C47.9794 17.9727 47.8411 17.8797 47.7249 17.7625C47.6078 17.6463 47.5148 17.5081 47.4513 17.3557C47.3878 17.2034 47.3552 17.04 47.3552 16.875C47.3552 16.71 47.3878 16.5466 47.4513 16.3943C47.5148 16.242 47.6078 16.1037 47.7249 15.9875L54.7249 9.00001C54.957 8.76132 55.2744 8.62459 55.6072 8.6199C55.9401 8.61521 56.2612 8.74295 56.4999 8.97501C56.7386 9.20708 56.8753 9.52446 56.88 9.85734C56.8847 10.1902 56.757 10.5113 56.5249 10.75ZM59.5749 19.15C59.8077 19.3842 59.9384 19.701 59.9384 20.0313C59.9384 20.3615 59.8077 20.6783 59.5749 20.9125L53.4749 27C53.3584 27.1157 53.2202 27.2074 53.0682 27.2697C52.9162 27.332 52.7535 27.3638 52.5892 27.3632C52.425 27.3626 52.2625 27.3297 52.111 27.2663C51.9594 27.2029 51.8219 27.1103 51.7062 26.9938C51.5904 26.8772 51.4988 26.739 51.4365 26.5871C51.3742 26.4351 51.3424 26.2723 51.343 26.1081C51.3436 25.9439 51.3765 25.7813 51.4399 25.6298C51.5033 25.4783 51.5959 25.3407 51.7124 25.225L57.7999 19.1375C57.9178 19.022 58.0573 18.9309 58.2105 18.8696C58.3638 18.8083 58.5276 18.7779 58.6926 18.7802C58.8576 18.7825 59.0206 18.8175 59.172 18.8831C59.3234 18.9487 59.4604 19.0437 59.5749 19.1625V19.15ZM33.0374 32.4875C33.2702 32.7217 33.4009 33.0385 33.4009 33.3688C33.4009 33.699 33.2702 34.0158 33.0374 34.25L22.4624 44.825C22.2282 45.0578 21.9114 45.1885 21.5812 45.1885C21.2509 45.1885 20.9341 45.0578 20.6999 44.825C20.4671 44.5908 20.3364 44.274 20.3364 43.9438C20.3364 43.6135 20.4671 43.2967 20.6999 43.0625L31.2749 32.4875C31.5091 32.2547 31.8259 32.124 32.1562 32.124C32.4864 32.124 32.8032 32.2547 33.0374 32.4875Z" fill="#F9620E"/>
</svg>
