<svg width="52" height="80" viewBox="0 0 52 80" fill="none" xmlns="http://www.w3.org/2000/svg">
<path d="M30.9381 77.9582C29.675 76.8133 26.9098 73.3325 25.4859 68.3523C24.4434 64.7064 24.23 60.7906 24.8515 56.7141C25.6353 51.5746 27.7552 46.1572 31.1525 40.6122C34.1294 35.7534 35.523 30.5916 35.2946 25.2704C35.1125 21.0339 33.9058 16.7028 31.7075 12.3975C27.9956 5.12743 22.789 0.486936 22.5692 0.292873C22.1268 -0.0974419 21.4632 -0.0975981 21.02 0.292248C20.577 0.682094 20.4932 1.34116 20.8242 1.82976C20.8545 1.8746 23.8801 6.39541 25.3673 13.2714C26.2353 17.2842 26.418 21.3077 25.9098 25.23C25.2755 30.1276 23.5545 34.8907 20.795 39.3869C16.6584 46.1263 14.9043 52.713 15.5812 58.9638C15.6509 59.6073 16.2287 60.0713 16.8724 60.0028C17.5159 59.9331 17.981 59.3549 17.9114 58.7115C17.2915 52.9888 18.9337 46.8995 22.7925 40.6129C25.738 35.814 27.5714 30.719 28.2422 25.4693C28.7789 21.2686 28.5753 16.9656 27.6372 12.6798C27.2797 11.0462 26.8442 9.54355 26.3825 8.19339C27.485 9.72246 28.6152 11.4951 29.62 13.4634C31.6641 17.467 32.7853 21.4733 32.9528 25.3711C33.161 30.218 31.8828 34.9339 29.1541 39.3879C25.5706 45.2367 23.3384 50.9813 22.5193 56.4621C21.8576 60.8904 22.1112 65.1547 23.2728 69.1366C23.6406 70.397 24.075 71.5473 24.54 72.5863C22.4079 70.2611 20.2375 67.1881 18.9567 63.4214C18.7484 62.8087 18.0831 62.4809 17.4699 62.6892C16.8571 62.8975 16.5293 63.5632 16.7378 64.1759C20.1811 74.3014 29.1834 79.6207 29.565 79.8421C29.7492 79.9491 29.9514 80.0004 30.1513 80.0004C30.5142 80.0004 30.8703 79.8313 31.0983 79.5191C31.4522 79.0347 31.3824 78.3608 30.9381 77.9582Z" fill="#F9620E"/>
<path d="M47.2035 26.7303C46.8721 26.3274 46.3142 26.1919 45.8348 26.3985C45.3556 26.6049 45.0706 27.1033 45.1357 27.6211C45.3195 29.081 45.1249 30.7572 44.5574 32.6035C44.3673 33.2221 44.7146 33.8779 45.3332 34.068C45.952 34.258 46.6076 33.9108 46.7977 33.2922C47.0438 32.4918 47.2295 31.7129 47.3543 30.9586C48.4699 32.8132 49.0742 34.5783 49.2226 36.3718C49.4923 39.629 48.2271 42.9947 45.3552 46.6608C40.2977 53.1167 37.3261 58.8055 36.5228 63.569C36.2738 65.0462 36.228 66.4349 36.3844 67.7304C34.8617 65.7973 33.6371 63.454 33.3258 60.7419C32.8502 56.596 34.5422 52.1228 38.3552 47.4469C40.9902 44.2153 43.0852 41.1782 44.5821 38.4202C44.8909 37.8513 44.6799 37.1399 44.1112 36.8313C43.5424 36.5224 42.831 36.7335 42.5223 37.3023C41.0949 39.9323 39.0818 42.8471 36.5389 45.9658C32.3114 51.1502 30.447 56.2114 30.9975 61.0091C31.5184 65.5496 34.2638 69.8598 38.9369 73.4736C39.1493 73.6378 39.4019 73.7184 39.6533 73.7184C39.9615 73.7184 40.2679 73.5975 40.4965 73.3608C40.9116 72.9311 40.9371 72.2579 40.5555 71.7983C36.5458 66.9662 38.8436 58.7735 47.2002 48.1059C54.889 38.2909 50.8845 31.2058 47.2035 26.7303Z" fill="#F9620E"/>
<path d="M15.9276 35.4694C22.9213 25.1478 18.4379 18.3555 14.4571 14.1444C14.0986 13.7653 13.5327 13.6688 13.0688 13.9077C12.6049 14.1466 12.355 14.6635 12.4557 15.1755C13.328 19.6104 10.8678 25.9671 5.1439 34.0692C1.28387 39.5327 -0.227072 44.7105 0.652777 49.4588C1.48544 53.9524 4.52155 58.0631 9.43267 61.3462C9.63189 61.4795 9.85846 61.5441 10.0833 61.5441C10.4189 61.5441 10.7505 61.4001 10.9808 61.1264C11.3653 60.6692 11.3442 59.9958 10.9321 59.5634C6.5989 55.0192 8.32642 46.6876 15.9276 35.4694ZM2.95732 49.0318C2.197 44.9285 3.57654 40.3494 7.05813 35.4217C11.8242 28.6754 14.4483 22.9538 14.8958 18.3476C16.1385 20.1223 16.8643 21.8432 17.1362 23.6237C17.6298 26.8546 16.5997 30.2993 13.9874 34.1547C9.38705 40.9441 6.81469 46.8241 6.34172 51.6317C6.195 53.1226 6.24515 54.511 6.49047 55.7928C4.83827 53.9693 3.45482 51.716 2.95732 49.0318Z" fill="#F9620E"/>
</svg>
