<svg width="53" height="75" viewBox="0 0 53 75" fill="none" xmlns="http://www.w3.org/2000/svg">
<path d="M52.7501 13.125C52.7501 10.7087 50.7913 8.74995 48.3751 8.74995H35.2501V2.50005C35.2501 1.11929 34.1308 0 32.7501 0H19.6014C18.2207 0 17.1014 1.11929 17.1014 2.50005V8.7501H4.62515C2.33267 8.74556 0.427344 10.5152 0.262842 12.8019C0.0983396 15.0885 1.73062 17.1126 4.00024 17.4363V27.7301C2.50259 28.2519 1.49902 29.6641 1.49902 31.2501C1.49902 32.8361 2.50259 34.2483 4.00024 34.7701V37.7301C2.50259 38.2519 1.49902 39.6642 1.49902 41.2501C1.49902 42.8361 2.50259 44.2484 4.00024 44.7702V52.5001C1.9335 52.5104 0.260498 54.1834 0.250244 56.2501C0.250244 58.3211 1.92925 60.0001 4.00024 60.0001V72.5001C4.00024 73.8809 5.11953 75.0001 6.50029 75.0001H10.2503C11.6311 75.0001 12.7503 73.8809 12.7503 72.5001V66.25C12.7503 64.1791 14.4293 62.5 16.5003 62.5H36.5003C38.5713 62.5 40.2503 64.1791 40.2503 66.25V72.5001C40.2503 73.8809 41.3696 75.0001 42.7503 75.0001H46.5003C47.8811 75.0001 49.0004 73.8809 49.0004 72.5001V60C51.0714 60 52.7504 58.321 52.7504 56.25C52.7504 54.179 51.0714 52.5 49.0004 52.5V17.4362C51.1471 17.1296 52.744 15.2938 52.7501 13.125ZM19.6014 2.50005H32.7501V8.7501H19.6014V2.50005ZM2.75015 13.125C2.75015 12.0895 3.58965 11.25 4.62515 11.25H48.3752C49.4107 11.25 50.2502 12.0895 50.2502 13.125C50.2502 14.1605 49.4107 15 48.3752 15H4.62515C3.5895 15 2.75015 14.1605 2.75015 13.125ZM5.25005 30H9.00005V32.5H5.25005C4.55967 32.5 4.0001 31.9403 4.0001 31.2501C4.0001 30.5599 4.55981 30 5.25005 30ZM41.5001 55H11.5001V47.5H41.5001V55ZM29.3176 42.8587C29.168 43.7924 28.5126 44.5661 27.6163 44.8674C27.4701 44.8961 27.3313 44.9437 27.1826 44.9612C26.6324 45.0272 26.0753 45.0104 25.5301 44.9112C24.5858 44.6076 23.8748 43.8242 23.6639 42.855C23.5225 42.0463 23.6284 41.2138 23.9677 40.4663C24.5207 39.2307 25.2751 38.0958 26.2002 37.1076C26.5996 38.0183 27.1679 38.845 27.8753 39.5438C28.1253 39.8049 28.3465 40.0825 28.569 40.3737C29.1625 41.0569 29.4354 41.9613 29.319 42.8587H29.3176ZM31.8176 41.9638C31.7081 40.8237 31.266 39.7411 30.5464 38.85C30.2778 38.4948 29.9911 38.1535 29.6877 37.8275C28.549 36.6289 28.1877 35.7713 28.4003 34.7675C28.4841 34.3724 28.3719 33.9612 28.099 33.6636C27.8261 33.3659 27.4262 33.2184 27.0254 33.2675C25.8792 33.4087 22.6266 37.0075 21.6342 39.5562C21.3169 40.3409 21.1401 41.1753 21.1117 42.0212C20.673 41.2687 20.3942 40.4339 20.293 39.5688C20.0939 37.8826 20.635 36.1929 21.7767 34.9362C22.3566 34.2149 22.9805 33.5237 23.6054 32.8324C23.9804 32.4174 24.3554 32.0024 24.7155 31.5825C25.6769 30.5607 26.3989 29.3379 26.8293 28.0025C28.2538 29.3886 29.5508 30.9001 30.7042 32.5188C32.0524 34.3532 32.7704 36.5748 32.7504 38.8513C32.7236 39.9527 32.4039 41.0271 31.8242 41.9638H31.8176ZM41.5001 45H32.5651C34.2286 43.3997 35.1935 41.2077 35.2502 38.9C35.2744 36.1031 34.4056 33.3715 32.7702 31.1024C31.0974 28.7938 29.1822 26.671 27.0578 24.7699L26.8553 24.5824C26.523 24.2114 26.0019 24.0731 25.5292 24.2306C25.0565 24.388 24.7225 24.8111 24.679 25.3074L24.639 25.8549C24.6238 26.1949 24.5897 26.5337 24.5365 26.8699C24.2691 28.0323 23.681 29.0963 22.839 29.9411C22.4841 30.3511 22.119 30.7548 21.7553 31.1585C21.1004 31.8848 20.4478 32.6098 19.8428 33.3598C18.2661 35.148 17.5303 37.5259 17.8216 39.8922C18.0239 41.8389 18.9134 43.6497 20.3303 44.9997H11.5001V28.75C11.5001 24.4276 16.1251 22.5 26.5001 22.5C36.8752 22.5 41.5001 24.4274 41.5001 28.75V45ZM9.00005 37.5H6.5V35H9.00005V37.5ZM5.25005 40H9.00005V42.5001H5.25005C4.55967 42.5001 4.0001 41.9404 4.0001 41.2501C4.0001 40.5599 4.55981 40 5.25005 40ZM50.2501 56.25C50.2501 56.9404 49.6903 57.5 49.0001 57.5H47.7501C47.0598 57.5 46.5002 58.0595 46.5002 58.7499V72.5H42.7502V66.2499C42.7461 62.7999 39.9503 60.0041 36.5001 59.9999H16.5C13.05 60.004 10.2542 62.7998 10.25 66.2499V72.5H6.5V58.7499C6.5 58.0595 5.94028 57.5 5.25005 57.5H4.0001C3.30972 57.5 2.75015 56.9404 2.75015 56.25C2.74912 55.9132 2.88755 55.591 3.13262 55.36C3.36055 55.1268 3.67402 54.9967 4.0001 54.9999H5.25005C5.94043 54.9999 6.5 54.4403 6.5 53.75V45H9.00005V55C9.00005 56.3808 10.1193 57.5001 11.5001 57.5001H41.5001C42.8809 57.5001 44.0002 56.3808 44.0002 55V28.75C44.0002 20.0001 31.2863 20.0001 26.5001 20.0001C21.9551 20.0001 10.2676 20.0001 9.10259 27.5001H6.50015V17.5H46.5002V53.7501C46.5002 54.4405 47.0598 55 47.7501 55H49.0001C49.6905 55 50.2501 55.5596 50.2501 56.25Z" fill="#F9620E"/>
<path d="M26.5002 52.5C27.1905 52.5 27.7501 51.9404 27.7501 51.2501C27.7501 50.5597 27.1905 50.0001 26.5002 50.0001C25.8099 50.0001 25.2502 50.5597 25.2502 51.2501C25.2502 51.9404 25.8099 52.5 26.5002 52.5Z" fill="#F9620E"/>
</svg>
