<svg width="70" height="70" viewBox="0 0 70 70" fill="none" xmlns="http://www.w3.org/2000/svg">
<path d="M69.2018 20.2847C69.9606 18.5195 70.184 16.5594 69.8476 14.6159C69.8463 14.6087 69.8437 14.6018 69.8424 14.5947C69.8421 14.5929 69.8421 14.5913 69.8418 14.5895C69.7293 13.9473 69.5569 13.3152 69.3294 12.7107L69.1176 12.148C69.1121 12.1336 69.1064 12.1194 69.1004 12.1053C65.8618 4.54971 57.663 0.401255 49.6062 2.24149C49.0744 2.36303 48.5449 2.49442 48.0175 2.63264C43.852 0.944028 39.446 0.0855713 34.9144 0.0855713C27.8121 0.0855713 20.9769 2.20553 15.1476 6.21618C9.45465 10.1329 5.08648 15.5788 2.51494 21.9652C2.30426 22.4886 2.5576 23.0837 3.08096 23.2944C3.60445 23.5049 4.19932 23.2519 4.41014 22.7284C5.07582 21.0752 5.87029 19.4894 6.78248 17.9815C10.0215 18.7497 13.479 19.3851 17.0968 19.8725L14.4648 30.439C14.3545 30.8826 14.4886 31.357 14.8148 31.6772C14.8515 31.7131 14.8907 31.7459 14.9309 31.7768C14.9431 31.7861 14.9555 31.7947 14.9678 31.8036C14.998 31.8254 15.0291 31.8455 15.0608 31.8643C15.0739 31.8721 15.0868 31.8802 15.1002 31.8874C15.143 31.9108 15.1866 31.9323 15.2316 31.9507C15.2329 31.9513 15.2343 31.9521 15.2357 31.9527C15.2819 31.9714 15.3293 31.9864 15.3772 31.9997C15.3917 32.0037 15.4062 32.0069 15.4209 32.0105C15.4567 32.0191 15.493 32.0262 15.5293 32.0317C15.5441 32.0339 15.5589 32.0365 15.5736 32.0381C15.6233 32.044 15.6732 32.0478 15.7233 32.0478C15.7235 32.0478 15.7235 32.0478 15.7236 32.0478C15.7239 32.0478 15.7243 32.0478 15.7246 32.0478C15.8361 32.0478 15.9485 32.0333 16.0588 32.0038L17.4132 31.6396C17.3787 32.3754 17.3541 33.1157 17.3422 33.8611L17.34 33.9952H2.05953C2.12174 31.935 2.37385 29.886 2.81367 27.8906C2.93508 27.3396 2.58699 26.7947 2.03588 26.6731C1.48518 26.5519 0.940078 26.8999 0.818398 27.4508C0.275488 29.9143 0 32.4541 0 34.9998C0 39.6933 0.930645 44.262 2.69883 48.4847C2.0959 49.1856 1.59811 49.9833 1.2183 50.8669C0.459512 52.632 0.236113 54.5922 0.572578 56.5356C0.573809 56.5429 0.576406 56.5496 0.577773 56.5568C0.578047 56.5586 0.578047 56.5604 0.57832 56.5622C0.69084 57.2042 0.863242 57.8364 1.09074 58.4408L1.30252 59.0036C1.30799 59.0179 1.31373 59.0321 1.31975 59.0463C4.04332 65.4002 10.2735 69.3446 16.9783 69.3441C18.2463 69.3441 19.5326 69.2028 20.8139 68.9102C21.8328 68.6775 22.8434 68.4123 23.845 68.1187C27.4072 69.3091 31.1292 69.9143 34.9144 69.9143C41.7389 69.9143 48.3498 67.945 54.0329 64.2192C59.5704 60.5888 63.9473 55.4944 66.6907 49.4866C66.9251 48.9733 66.6989 48.3672 66.1858 48.1329C65.6726 47.8983 65.0665 48.1247 64.8322 48.6378C63.9707 50.5243 62.9372 52.3146 61.75 53.9906C58.9869 53.3766 56.067 52.858 53.0337 52.4419L55.9554 40.7124C56.0659 40.2687 55.9316 39.7944 55.6053 39.4741C55.2791 39.1539 54.8018 39.0289 54.361 39.1478L52.3373 39.692C52.4162 38.5152 52.4673 37.3291 52.4861 36.1387L52.4882 36.0046H67.7697C67.69 38.6483 67.2969 41.2635 66.5967 43.7924C66.4461 44.3361 66.7648 44.8988 67.3084 45.0494C67.3996 45.0746 67.4915 45.0867 67.5816 45.0867C68.0293 45.0867 68.4403 44.79 68.5654 44.3375C69.4035 41.3108 69.8284 38.1691 69.8284 34.9996C69.8284 30.793 69.0687 26.6566 67.6201 22.7784C68.2701 22.0497 68.8019 21.2146 69.2018 20.2847ZM67.3248 19.4776C67.1549 19.8731 66.9556 20.2463 66.7278 20.5956C65.889 18.7445 64.8892 16.9757 63.7412 15.2998C63.7308 15.2846 63.7205 15.2694 63.7103 15.2542C63.592 15.0821 63.4717 14.9112 63.3501 14.7411C63.2998 14.6705 63.2492 14.6 63.1984 14.5298C63.1425 14.4527 63.0885 14.3746 63.0319 14.2979C64.6736 14.6189 66.3071 15.041 67.916 15.5599C68.0512 16.913 67.8501 18.2563 67.3248 19.4776ZM44.7144 3.61456C44.651 3.63575 44.588 3.65817 44.5245 3.67963C44.3471 3.73965 44.1697 3.79995 43.9931 3.86188C43.9662 3.87131 43.9394 3.88116 43.9124 3.89045C43.6767 3.97344 43.4413 4.05698 43.207 4.14325C43.2075 4.14297 43.2082 4.14284 43.2087 4.14256C42.7663 3.67649 42.3134 3.25047 41.8521 2.86206C42.8165 3.06932 43.7712 3.31965 44.7144 3.61456ZM36.0772 2.20567C37.8357 2.48745 39.5568 3.42493 41.1662 4.94373C39.3695 5.69063 37.6168 6.53514 35.9194 7.47125V2.18038L36.0772 2.20567ZM33.7516 2.20581L33.9094 2.18051V8.63705C30.9072 10.4699 28.1035 12.5968 25.5644 14.9775C25.5233 15.0159 25.4822 15.0546 25.4413 15.0931C25.2986 15.2279 25.1562 15.3631 25.0153 15.4995C24.9386 15.5736 24.8627 15.6481 24.7866 15.7226C24.6719 15.835 24.5569 15.947 24.4434 16.0605C24.2879 16.2155 24.1343 16.3721 23.981 16.5291C23.9451 16.5661 23.9081 16.6023 23.8723 16.6393L22.9221 14.152C23.2892 13.2203 23.6798 12.3249 24.0952 11.4756C26.7381 6.07221 30.1675 2.78016 33.7516 2.20581ZM7.94965 16.1878C10.197 12.9687 13.0158 10.1627 16.3054 7.89946C19.86 5.4537 23.8129 3.75592 27.974 2.86274C25.8486 4.6528 23.9079 7.28463 22.2898 10.5925C22.1531 10.8719 22.019 11.1556 21.8873 11.4433L21.7299 11.0313C21.6537 10.8321 21.5333 10.6606 21.3824 10.5258C21.3641 10.5094 21.3449 10.4944 21.3257 10.4791C21.3186 10.4735 21.3119 10.4672 21.3046 10.4617C21.0637 10.2782 20.7601 10.181 20.4407 10.2003C19.8728 10.2347 19.399 10.6288 19.2615 11.1807L17.5854 17.9093C14.2263 17.4628 10.9971 16.8852 7.94965 16.1878ZM16.7542 29.701L20.6698 13.9811L22.3887 18.4803C22.5496 18.9022 22.9105 19.2051 23.3539 19.2903C23.7978 19.3759 24.2458 19.2278 24.5526 18.8951C24.752 18.6786 24.9538 18.4643 25.1575 18.2515C25.2608 18.1437 25.3661 18.0373 25.4706 17.9302C25.5687 17.8297 25.6661 17.7286 25.7653 17.6288C25.9133 17.4802 26.0631 17.3329 26.2132 17.1861C26.2674 17.133 26.321 17.0794 26.3755 17.0265C26.5595 16.8482 26.7451 16.6715 26.9322 16.4961C26.9504 16.479 26.9683 16.4617 26.9866 16.4447C32.0182 11.7403 38.1804 8.04096 44.8242 5.73588C44.8677 5.72071 44.9114 5.70635 44.9552 5.69145C45.1855 5.61215 45.4162 5.53422 45.6477 5.45834C45.7428 5.42731 45.8385 5.3975 45.9339 5.36688C46.1188 5.30754 46.3035 5.24793 46.4892 5.19079C46.6557 5.13952 46.8229 5.09057 46.9898 5.04108C47.1095 5.00567 47.2288 4.96875 47.3487 4.9343C48.2459 4.67563 49.1507 4.44157 50.0619 4.23348C57.1484 2.61487 64.3588 6.25487 67.2145 12.8901L67.3408 13.2253C65.1906 12.5998 63.0085 12.1431 60.8162 11.8547C60.776 11.8443 60.7354 11.8356 60.6937 11.8301C49.7129 10.4091 38.8835 13.308 29.8817 20.011C29.7773 20.0885 29.6733 20.1664 29.5695 20.2449C29.4457 20.3387 29.3217 20.4321 29.1987 20.5273C28.9651 20.7078 28.7334 20.8912 28.503 21.0764C28.4323 21.1333 28.362 21.1907 28.2916 21.2481C28.0319 21.4596 27.7733 21.673 27.5177 21.8908C27.1689 22.1879 27.0022 22.6529 27.0828 23.1045C27.1634 23.5566 27.4809 23.9359 27.9113 24.0943L32.0015 25.6007L16.7542 29.701ZM35.9193 44.108V36.0047H50.4783L50.476 36.1432C50.4535 37.5203 50.3895 38.8904 50.2849 40.2442L35.9193 44.108ZM35.9193 46.8078L40.5856 48.5264C40.5582 48.5485 40.5301 48.57 40.5024 48.5921C40.3166 48.7405 40.1297 48.8864 39.9422 49.0312C39.8393 49.1106 39.7363 49.19 39.6327 49.2685C39.5201 49.3539 39.4064 49.4378 39.2931 49.5218C39.0615 49.6936 38.8289 49.8635 38.5946 50.0302C38.5788 50.0414 38.5632 50.0526 38.5473 50.0636C37.9663 50.4754 37.3762 50.8708 36.7784 51.2511C36.537 51.2476 36.296 51.243 36.0545 51.2411L35.9193 51.24V46.8078ZM35.9193 33.995V21.0306L36.0545 21.0295C40.3431 20.9951 44.6035 20.7655 48.7171 20.3469L48.8359 20.3348L48.8634 20.4509C49.8567 24.6341 50.3992 29.1443 50.476 33.8565L50.4783 33.995H35.9193ZM35.9193 19.0208V18.55C39.4227 16.6181 43.159 15.2121 46.9999 14.3921C47.4692 15.6051 47.8975 16.88 48.2784 18.2116L48.3234 18.3686L48.161 18.3847C44.236 18.7726 40.1636 18.9863 36.0566 19.0199L35.9193 19.0208ZM50.4633 18.1337L50.3474 18.1473L50.3162 18.0348C49.9285 16.6377 49.491 15.2959 49.0092 14.0167C49.1854 13.9885 49.3618 13.9613 49.5384 13.9356C49.5513 13.9337 49.5641 13.9318 49.577 13.93C53.0234 13.4342 56.5456 13.3984 60.0466 13.8156C60.0819 13.8574 60.1176 13.8989 60.1526 13.9411C60.2297 14.0332 60.306 14.126 60.382 14.219C60.4506 14.303 60.519 14.387 60.5865 14.4714C60.6776 14.5853 60.7679 14.6998 60.8573 14.8148C60.906 14.8773 60.9547 14.9398 61.0029 15.0025C61.1178 15.1522 61.2314 15.3031 61.3437 15.4545C61.3644 15.4827 61.3855 15.5106 61.4063 15.5386C61.5642 15.7535 61.7187 15.9704 61.8713 16.1887C58.2921 17.0078 54.4622 17.6628 50.4633 18.1337ZM21.6892 51.8678L21.5763 51.8787L21.5451 51.7696C20.2009 47.0639 19.4429 41.6604 19.3527 36.1431L19.3504 36.0046H33.9095V51.2397L33.7743 51.2408C29.6963 51.274 25.6301 51.485 21.6892 51.8678ZM33.2644 53.2577C30.7074 54.5581 28.0379 55.5829 25.3031 56.3099C25.1524 56.3498 25.0015 56.3889 24.8503 56.4271C24.7216 56.4596 24.593 56.492 24.464 56.5232C24.2361 56.5783 24.0077 56.6315 23.7788 56.6825C23.702 56.6997 23.6253 56.7167 23.5484 56.7333C23.4668 56.751 23.3851 56.7667 23.3033 56.7839C22.9254 55.8929 22.5699 54.9628 22.2418 54.0006L22.186 53.8371L22.358 53.821C25.9082 53.4895 29.5749 53.3013 33.2644 53.2577ZM21.2808 57.1539C21.1373 57.1764 20.9937 57.1998 20.8499 57.2207C20.7089 57.2411 20.5676 57.2594 20.4265 57.2782C20.3146 57.2932 20.2027 57.3076 20.0907 57.3216C17.0417 57.6998 13.9393 57.7206 10.85 57.3889C10.808 57.3438 10.7658 57.2988 10.7238 57.2534C10.6415 57.1641 10.56 57.0743 10.4788 56.9844C10.3924 56.8884 10.3061 56.792 10.221 56.6952C10.1445 56.6085 10.0692 56.521 9.99387 56.4337C9.90568 56.3312 9.8175 56.2288 9.73055 56.1254C9.66396 56.0461 9.59848 55.9662 9.53271 55.8864C9.49758 55.8437 9.46258 55.8005 9.42758 55.7577C12.7779 55.0472 16.3372 54.4765 20.0305 54.062L20.1406 54.0495L20.1752 54.1547C20.5148 55.1901 20.8852 56.1915 21.2808 57.1539ZM19.3505 33.995L19.3528 33.8565C19.368 32.9262 19.402 32.0042 19.4534 31.0906L33.9097 27.2025V33.995H19.3505ZM33.9097 21.0305V24.1259L29.8344 22.6253C29.867 22.5989 29.9004 22.5735 29.9332 22.5471C30.1129 22.4038 30.2935 22.2629 30.4747 22.1229C30.5858 22.0371 30.6969 21.9515 30.8086 21.8671C30.883 21.8107 30.9579 21.7559 31.0326 21.7001C31.3511 21.4625 31.6734 21.231 31.9975 21.0031C32.5891 21.0154 33.1814 21.0247 33.7745 21.0295L33.9097 21.0305ZM2.06008 36.0047H17.3404L17.3426 36.1388C17.4305 41.6859 18.1787 47.15 19.5059 51.9403L19.5483 52.0937L19.3903 52.112C15.4232 52.5707 11.6252 53.2035 8.08254 53.991C6.81475 52.2028 5.72769 50.2922 4.83588 48.2751C4.82973 48.2613 4.82193 48.2486 4.81523 48.2352C3.13223 44.4102 2.18846 40.2701 2.06008 36.0047ZM3.09518 51.6738C3.2591 51.2925 3.4501 50.9319 3.66666 50.594C4.50051 52.262 5.47039 53.8662 6.57111 55.3919C6.59395 55.4233 6.61705 55.4546 6.63988 55.4861C6.79 55.6926 6.94244 55.8979 7.09721 56.1014C7.14123 56.1594 7.18566 56.2171 7.23023 56.2749C7.36695 56.4522 7.50531 56.6285 7.64559 56.8035C7.67676 56.8423 7.7067 56.8824 7.73801 56.9211C5.97967 56.5927 4.22885 56.148 2.50414 55.5915C2.36879 54.2385 2.57018 52.8951 3.09518 51.6738ZM27.2913 66.9818C27.4086 66.9386 27.5252 66.8939 27.6422 66.8498C27.7506 66.9465 27.8596 67.0402 27.969 67.1323C27.7427 67.0836 27.5163 67.0352 27.2913 66.9818ZM29.7706 65.9966C31.1831 65.3946 32.5642 64.7344 33.9094 64.0166V67.8195L33.7518 67.7943C32.3909 67.5761 31.0524 66.9652 29.7706 65.9966ZM36.0772 67.794L35.9194 67.8193V62.8857C39.8326 60.5693 43.4107 57.7567 46.5478 54.5123L46.9839 55.6538C46.5944 56.6573 46.1765 57.6185 45.7335 58.5241C43.0906 63.9276 39.6612 67.2198 36.0772 67.794ZM60.4067 55.7572C58.2829 58.3629 55.7613 60.6428 52.9123 62.5105C49.5219 64.7334 45.7796 66.2909 41.8575 67.1344C43.9817 65.3443 45.9214 62.7136 47.5386 59.4073C47.7036 59.0699 47.8644 58.7241 48.0226 58.3737L48.6899 60.1203C48.8928 60.6514 49.4088 60.9842 49.9788 60.9512C50.5466 60.9171 51.0204 60.5233 51.1584 59.9708L52.5451 54.4035C55.2623 54.7717 57.8942 55.2245 60.4067 55.7572ZM53.6658 41.4506L49.7502 57.1706L48.0315 52.6716C47.8706 52.2496 47.5098 51.9468 47.0664 51.8615C46.6226 51.7759 46.1744 51.9237 45.8676 52.2568C45.6672 52.4743 45.4643 52.6899 45.2596 52.9037C45.2208 52.9443 45.1812 52.9842 45.1422 53.0247C44.9682 53.2053 44.7932 53.3851 44.616 53.5628C44.5919 53.5869 44.5679 53.6107 44.5438 53.6347C39.3705 58.8069 32.9217 62.8321 25.8847 65.3159C25.7254 65.3719 25.5653 65.4266 25.4054 65.481C25.3065 65.5148 25.2077 65.5488 25.1085 65.5819C24.892 65.6542 24.6749 65.7249 24.4572 65.7945C24.4147 65.8082 24.3722 65.8219 24.3295 65.8353C24.0857 65.9124 23.8413 65.9878 23.5959 66.0614C22.5273 66.3821 21.4482 66.6696 20.3589 66.9185C13.2722 68.5367 6.06211 64.8972 3.20646 58.2621L3.08014 57.9268C5.40682 58.6035 7.77068 59.083 10.1444 59.3652C10.1799 59.3732 10.2151 59.3831 10.2516 59.3873C11.8963 59.5797 13.5363 59.6748 15.1684 59.6747C17.2084 59.6746 19.2336 59.5232 21.2332 59.229C21.2849 59.2215 21.3365 59.214 21.3881 59.2062C21.5618 59.1799 21.7351 59.1531 21.9084 59.1247C22.0061 59.1087 22.1036 59.0916 22.2015 59.0748C22.4495 59.0324 22.697 58.9878 22.9441 58.9408C23.0243 58.9255 23.1045 58.9113 23.1845 58.8955C23.2207 58.8884 23.2568 58.8805 23.293 58.8733C23.452 58.8417 23.6109 58.809 23.7696 58.7756C23.8561 58.7573 23.9426 58.7383 24.0289 58.7195C30.1118 57.3948 35.8976 54.705 41.0534 50.7534C41.1291 50.6956 41.2051 50.6383 41.2804 50.5799C41.3834 50.4999 41.4857 50.4188 41.5882 50.3378C41.7275 50.2278 41.8664 50.117 42.0048 50.0053C42.0842 49.941 42.1637 49.8769 42.2428 49.812C42.4644 49.6303 42.6851 49.4472 42.9037 49.261C43.2523 48.9639 43.4191 48.499 43.3386 48.0475C43.2581 47.5953 42.9408 47.2159 42.5101 47.0573L38.42 45.5511L53.6658 41.4506ZM67.7683 33.995H52.4882L52.4861 33.8608C52.4104 29.0973 51.8708 24.5213 50.8822 20.2595L50.8479 20.1116L50.9986 20.0934C55.2435 19.5829 59.2903 18.8741 63.0399 17.9851C65.9539 22.8015 67.5947 28.3142 67.7683 33.995Z" fill="#F9620E"/>
</svg>
